<?xml version="1.0" standalone="no"?>
<!DOCTYPE svg PUBLIC "-//W3C//DTD SVG 20010904//EN"
 "http://www.w3.org/TR/2001/REC-SVG-20010904/DTD/svg10.dtd">
<svg version="1.0" xmlns="http://www.w3.org/2000/svg"
 width="203.000000pt" height="187.000000pt" viewBox="0 0 203.000000 187.000000"
 preserveAspectRatio="xMidYMid meet">

<g transform="translate(0.000000,187.000000) scale(0.100000,-0.100000)"
fill="#000000" stroke="none">
<path d="M1350 1730 c-64 -24 -121 -76 -154 -143 l-24 -48 -17 23 c-16 23 -16
23 -31 3 -18 -24 -29 -64 -20 -73 4 -3 15 -1 26 6 26 16 31 3 15 -36 -14 -33
-35 -43 -35 -17 0 29 -30 15 -45 -21 -20 -48 -20 -47 15 -40 35 6 35 7 15 -40
l-15 -36 -18 22 c-15 19 -20 20 -30 8 -6 -8 -15 -30 -18 -48 -7 -32 -7 -32 24
-25 l32 7 -14 -33 c-15 -36 -36 -50 -36 -25 0 29 -31 16 -46 -19 -19 -47 -18
-48 16 -41 35 6 35 7 14 -42 -14 -34 -17 -35 -28 -20 -17 23 -33 23 -46 -1
-24 -45 -3 -79 29 -48 11 10 13 6 7 -23 -8 -45 -24 -61 -37 -37 -14 25 -26 21
-44 -14 -21 -39 -13 -64 14 -49 27 14 31 2 14 -40 l-15 -34 -17 23 -18 24 -17
-24 c-9 -13 -16 -34 -16 -47 0 -21 4 -23 25 -18 14 4 25 3 25 0 0 -4 -23 -65
-52 -137 -55 -136 -83 -172 -113 -147 -21 18 -22 210 -1 210 22 0 27 15 17 43
l-10 26 -214 1 c-117 0 -221 -2 -230 -6 -22 -8 -23 -64 -2 -64 13 0 15 -23 15
-144 0 -79 4 -166 10 -195 23 -122 85 -202 198 -258 73 -37 79 -38 181 -38 99
0 110 2 173 33 68 33 118 82 152 150 15 28 53 182 120 477 8 33 25 112 40 175
105 465 145 623 162 648 29 39 99 72 155 72 69 0 167 -54 264 -144 77 -72 148
-117 162 -102 4 3 -1 12 -10 19 -8 6 -20 30 -26 53 -9 35 -54 84 -77 84 -3 0
-32 24 -63 54 -81 79 -105 95 -166 117 -69 24 -145 24 -215 -1z"/>
<path d="M588 1443 c6 -2 18 -2 25 0 6 3 1 5 -13 5 -14 0 -19 -2 -12 -5z"/>
<path d="M523 1409 c-18 -12 -33 -23 -33 -26 0 -2 5 -1 12 3 7 4 8 3 4 -4 -4
-6 -13 -9 -20 -6 -7 3 -16 -2 -20 -11 -3 -9 -11 -13 -17 -9 -7 4 -9 3 -6 -4 8
-11 25 -11 44 1 9 6 11 3 6 -9 -4 -11 -3 -15 4 -11 7 5 9 -1 5 -15 -3 -14 -2
-19 6 -14 18 11 15 -55 -4 -82 -8 -12 -11 -22 -7 -22 13 0 45 59 38 69 -3 5 1
16 9 23 21 22 47 78 41 88 -3 6 -1 10 5 10 8 0 8 6 0 20 -13 25 -27 25 -67 -1z
m14 -19 c-1 -22 -17 -28 -17 -7 0 12 9 27 16 27 2 0 2 -9 1 -20z m23 -60 c0
-5 -8 -10 -17 -10 -15 0 -16 2 -3 10 19 12 20 12 20 0z"/>
<path d="M387 1322 c-27 -17 -35 -32 -17 -32 6 0 10 4 10 9 0 5 11 4 24 -2 19
-9 22 -15 15 -29 -6 -11 -6 -18 0 -18 13 0 20 23 14 53 -7 36 -13 39 -46 19z"/>
<path d="M488 1277 c-10 -8 -13 -18 -9 -26 9 -13 13 -9 24 22 7 20 7 20 -15 4z"/>
<path d="M156 1228 c2 -15 -2 -29 -9 -32 -7 -2 -5 -5 5 -5 20 -1 35 19 20 28
-5 3 -12 13 -15 21 -2 8 -3 3 -1 -12z"/>
<path d="M201 1236 c-9 -11 -8 -15 4 -20 9 -3 13 -10 10 -16 -8 -13 3 -50 16
-50 5 0 9 9 9 21 0 11 -4 17 -10 14 -5 -3 -10 -2 -10 4 0 5 6 12 13 15 8 3 6
9 -7 20 -23 18 -14 21 15 6 11 -6 19 -7 19 -1 0 9 -23 21 -40 21 -4 0 -13 -6
-19 -14z"/>
<path d="M326 1237 c3 -10 9 -15 12 -12 3 3 0 11 -7 18 -10 9 -11 8 -5 -6z"/>
<path d="M436 1233 c-6 -14 -5 -15 5 -6 7 7 10 15 7 18 -3 3 -9 -2 -12 -12z"/>
<path d="M315 1201 c-6 -11 13 -26 22 -17 4 3 0 6 -8 6 -11 0 -11 2 1 10 9 6
10 10 3 10 -6 0 -14 -4 -18 -9z"/>
<path d="M357 1179 c-4 -16 -3 -18 9 -8 7 6 11 15 8 20 -8 13 -11 11 -17 -12z"/>
<path d="M438 1172 c-3 -11 0 -19 7 -19 7 0 10 8 7 19 -2 10 -6 18 -7 18 -1 0
-5 -8 -7 -18z"/>
<path d="M269 1163 c-9 -10 -6 -13 13 -13 14 0 25 6 25 13 0 8 -6 14 -14 14
-7 0 -18 -6 -24 -14z"/>
<path d="M460 1120 c0 -5 7 -7 15 -4 8 4 15 8 15 10 0 2 -7 4 -15 4 -8 0 -15
-4 -15 -10z"/>
<path d="M326 1103 c-9 -22 -3 -25 28 -13 19 7 33 7 44 -1 15 -9 14 -10 -4 -6
-24 5 -52 -7 -38 -16 5 -3 25 0 45 7 30 11 38 10 45 -2 6 -8 19 -12 34 -10
l25 5 -25 11 c-22 9 -14 17 13 13 4 0 7 4 7 10 0 6 -8 8 -17 6 -50 -14 -73
-17 -73 -9 0 5 -6 9 -13 9 -7 0 -24 3 -39 6 -19 5 -28 3 -32 -10z"/>
<path d="M524 1062 c9 -85 21 -139 35 -150 12 -10 12 -12 1 -6 -11 5 -12 4 -5
-4 6 -6 26 -13 45 -15 19 -2 43 -8 53 -12 25 -10 36 4 15 19 -10 7 -16 16 -13
20 3 3 -1 2 -7 -4 -7 -5 -19 -10 -27 -10 -11 0 -10 4 4 20 10 11 13 20 7 20
-6 0 -14 -4 -17 -10 -3 -5 -14 -10 -23 -9 -13 0 -12 2 4 9 12 5 25 13 28 18 9
14 -41 63 -57 56 -8 -3 -17 2 -20 10 -4 10 -1 16 9 16 11 0 12 4 5 19 -14 25
-39 34 -37 13z m26 -12 c0 -5 -5 -10 -11 -10 -5 0 -7 5 -4 10 3 6 8 10 11 10
2 0 4 -4 4 -10z m33 -67 c-7 -2 -19 -2 -25 0 -7 3 -2 5 12 5 14 0 19 -2 13 -5z"/>
<path d="M416 1060 c-19 -6 -19 -7 -1 -14 10 -3 22 -3 28 3 12 12 -4 20 -27
11z"/>
<path d="M454 1041 c-9 -9 -4 -18 11 -18 8 0 15 4 15 9 0 5 4 7 10 3 5 -3 7
-12 3 -20 -3 -8 0 -15 6 -15 6 0 11 11 11 25 0 20 -4 24 -26 23 -14 -2 -27 -4
-30 -7z"/>
</g>
</svg>
