<?xml version="1.0" standalone="no"?>
<!DOCTYPE svg PUBLIC "-//W3C//DTD SVG 20010904//EN"
 "http://www.w3.org/TR/2001/REC-SVG-20010904/DTD/svg10.dtd">
<svg version="1.0" xmlns="http://www.w3.org/2000/svg"
 width="551.000000pt" height="244.000000pt" viewBox="0 0 551.000000 244.000000"
 preserveAspectRatio="xMidYMid meet">

<g transform="translate(0.000000,244.000000) scale(0.100000,-0.100000)"
fill="#000000" stroke="none">
<path d="M4313 2316 c-93 -22 -186 -70 -253 -133 -110 -101 -138 -173 -149
-373 -9 -176 -20 -195 -194 -367 -218 -214 -287 -351 -287 -573 0 -194 64
-345 208 -493 148 -152 332 -247 577 -298 88 -19 352 -16 452 4 227 46 412
142 558 291 44 45 95 108 114 140 110 186 130 414 52 604 -44 110 -85 166
-231 317 -176 183 -181 193 -190 390 -6 142 -9 157 -38 218 -79 169 -248 273
-462 282 -61 3 -117 0 -157 -9z m254 -80 c76 -20 134 -51 188 -98 92 -81 125
-168 125 -328 0 -110 18 -191 56 -252 15 -24 86 -104 158 -178 140 -145 182
-205 224 -322 22 -63 26 -89 26 -188 -1 -99 -4 -125 -28 -190 -38 -107 -81
-174 -166 -260 -122 -123 -261 -200 -455 -251 -79 -21 -112 -24 -265 -23 -157
0 -185 3 -275 27 -171 46 -306 120 -424 231 -214 205 -270 477 -150 732 40 84
81 135 227 278 172 169 201 234 202 448 0 132 55 232 168 310 103 71 264 97
389 64z"/>
<path d="M4270 1271 c-128 -41 -234 -126 -286 -228 -27 -53 -29 -67 -29 -163
0 -95 3 -110 28 -160 52 -101 151 -186 266 -226 89 -32 248 -33 342 -4 135 42
255 152 294 271 26 78 18 208 -17 280 -51 104 -146 182 -271 224 -95 31 -240
34 -327 6z m263 -185 c61 -18 104 -50 126 -94 57 -112 24 -248 -74 -304 -35
-20 -56 -23 -177 -26 l-138 -4 0 101 0 101 -30 0 c-23 0 -30 4 -30 20 0 16 7
20 30 20 l30 0 0 100 0 100 108 0 c64 0 128 -6 155 -14z"/>
<path d="M4370 960 l0 -60 55 0 c48 0 55 -2 55 -20 0 -18 -7 -20 -55 -20 l-55
0 0 -60 0 -60 61 0 c109 0 159 42 159 135 0 93 -59 145 -165 145 l-55 0 0 -60z"/>
<path d="M1910 2313 c-153 -13 -283 -96 -342 -217 -24 -51 -39 -57 -60 -24 -9
14 -19 19 -27 13 -18 -11 -50 -85 -44 -102 6 -15 39 -18 48 -3 9 15 25 12 25
-5 0 -21 -32 -85 -43 -85 -5 0 -11 9 -14 21 -4 15 -12 19 -31 17 -20 -2 -29
-13 -41 -45 -12 -34 -13 -45 -3 -55 10 -10 17 -10 33 1 32 20 40 1 19 -47 -21
-46 -35 -53 -43 -21 -9 35 -49 21 -70 -25 -25 -54 -17 -69 32 -61 l39 6 -21
-45 c-22 -49 -41 -59 -50 -26 -10 39 -49 17 -74 -41 -16 -38 -3 -52 41 -44 20
4 36 4 36 1 0 -4 -9 -25 -20 -46 -22 -44 -45 -52 -53 -19 -9 35 -40 18 -61
-34 -23 -55 -12 -74 31 -54 33 15 39 3 18 -43 -21 -46 -30 -49 -54 -18 l-18
21 -21 -21 c-39 -39 -42 -112 -4 -97 9 4 23 9 30 12 16 7 15 -17 -3 -61 -17
-40 -34 -47 -42 -17 -6 22 -25 33 -40 23 -14 -10 -43 -68 -43 -87 0 -21 27
-30 46 -15 40 34 30 -13 -34 -163 -70 -162 -90 -195 -130 -216 -20 -11 -27
-10 -43 5 -17 15 -19 32 -19 139 0 121 0 122 26 133 21 10 25 18 22 50 l-3 37
-334 3 c-361 2 -351 4 -351 -51 0 -20 7 -30 24 -37 24 -9 24 -9 29 -222 6
-269 23 -335 116 -440 115 -130 317 -200 517 -177 94 10 155 30 225 72 77 46
105 73 148 142 45 72 25 0 186 645 74 294 139 551 145 570 5 19 32 127 60 240
61 247 64 255 109 303 66 70 187 95 302 61 70 -20 166 -74 203 -113 17 -17 33
-31 38 -31 4 0 29 -21 55 -46 27 -25 68 -59 92 -75 44 -29 118 -55 128 -45 3
3 -6 19 -20 36 -15 17 -29 46 -33 66 -7 40 -72 102 -116 111 -16 3 -28 12 -28
19 0 8 -4 14 -10 14 -5 0 -42 29 -82 65 -40 36 -99 79 -130 95 -75 37 -189 60
-268 53z"/>
<path d="M715 1910 c4 -6 11 -8 16 -5 14 9 11 15 -7 15 -8 0 -12 -5 -9 -10z"/>
<path d="M648 1884 c-18 -9 -25 -20 -21 -30 4 -12 0 -14 -19 -9 -16 4 -29 1
-37 -9 -8 -9 -20 -16 -28 -16 -7 0 -16 -7 -19 -15 -4 -8 -12 -15 -20 -15 -8 0
-14 -4 -14 -10 0 -14 11 -12 31 6 15 14 18 12 35 -25 11 -23 24 -39 32 -36 18
7 16 -69 -3 -85 -20 -17 -32 -5 -15 15 7 8 9 15 5 15 -4 0 -2 7 5 15 20 24 3
31 -21 9 -20 -18 -21 -18 -40 6 l-19 25 0 -27 c0 -19 4 -26 13 -22 8 3 19 -7
26 -22 10 -23 9 -28 -9 -41 -22 -16 -18 -36 6 -26 9 3 14 0 12 -8 -2 -7 4 -13
12 -14 15 0 75 103 66 113 -3 3 5 19 18 36 31 42 59 103 52 115 -3 5 0 11 6
14 10 3 10 9 -1 30 -17 31 -17 31 -53 11z"/>
<path d="M425 1754 c-16 -8 -37 -22 -45 -31 -14 -14 -12 -15 18 -10 18 4 32 2
32 -3 0 -6 7 -10 15 -10 18 0 19 -12 3 -28 -8 -8 -5 -14 16 -22 15 -5 25 -14
22 -19 -3 -4 6 -6 20 -3 19 3 22 7 13 18 -6 8 -18 14 -25 14 -10 0 -13 7 -8
24 4 19 -18 86 -29 86 -1 0 -15 -7 -32 -16z"/>
<path d="M120 1661 c0 -5 4 -12 10 -16 5 -3 7 -11 4 -18 -3 -8 10 -20 30 -29
33 -16 34 -16 56 7 l23 24 -27 11 c-15 5 -34 10 -42 10 -9 0 -24 5 -35 10 -12
7 -19 7 -19 1z"/>
<path d="M324 1633 c5 -17 3 -29 -6 -34 -19 -12 -30 -11 -22 3 4 7 3 8 -4 4
-7 -4 -12 -12 -12 -17 0 -5 -11 -22 -25 -37 l-25 -27 32 -3 c23 -3 28 -6 17
-13 -9 -5 -10 -9 -2 -9 6 0 27 14 45 30 36 34 59 41 28 10 -12 -12 -18 -26
-14 -31 4 -6 9 -7 13 -2 3 4 31 10 61 11 91 4 111 11 100 32 -8 14 -18 17 -55
13 -41 -5 -45 -4 -45 15 0 19 -3 20 -26 12 -35 -14 -36 -13 -24 11 9 16 8 25
-6 40 -24 27 -37 24 -30 -8z m101 -93 c-3 -5 -17 -10 -31 -10 -14 0 -22 4 -19
10 3 6 17 10 31 10 14 0 22 -4 19 -10z"/>
<path d="M64 1601 c-10 -47 -9 -50 6 -36 9 8 22 15 28 15 17 0 14 21 -6 48
l-18 23 -10 -50z"/>
<path d="M162 1560 c12 -36 27 -47 39 -29 13 22 11 30 -11 36 -11 3 -20 9 -20
14 0 5 -4 9 -9 9 -6 0 -6 -12 1 -30z"/>
<path d="M480 1493 c-35 -2 -69 -8 -75 -13 -6 -5 -31 -8 -55 -6 -25 2 -57 0
-72 -3 -24 -5 -18 -10 55 -39 45 -19 97 -41 116 -50 26 -13 35 -14 39 -4 2 6
8 12 13 12 4 0 6 -6 3 -13 -6 -17 21 -41 36 -32 6 3 8 11 5 16 -4 5 -1 9 5 9
7 0 10 -7 6 -15 -3 -9 3 -19 16 -26 18 -10 20 -9 14 6 -3 10 -9 51 -13 91 -4
46 -10 73 -17 72 -6 -1 -40 -3 -76 -5z m-8 -75 c-6 -6 -15 -8 -19 -4 -4 4 -1
11 7 16 19 12 27 3 12 -12z"/>
<path d="M610 1406 c0 -15 3 -25 8 -23 4 3 7 -14 8 -36 3 -144 14 -161 117
-176 81 -11 106 -8 74 10 -9 6 -17 17 -17 25 0 11 -4 12 -19 4 -33 -17 -46
-12 -25 11 16 17 16 22 4 29 -8 6 -11 10 -7 10 4 0 3 6 -3 13 -44 52 -62 67
-79 67 -11 0 -23 5 -26 10 -3 6 1 10 9 10 24 0 19 13 -14 45 l-30 29 0 -28z"/>
</g>
</svg>
