<?xml version="1.0" standalone="no"?>
<!DOCTYPE svg PUBLIC "-//W3C//DTD SVG 20010904//EN"
 "http://www.w3.org/TR/2001/REC-SVG-20010904/DTD/svg10.dtd">
<svg version="1.0" xmlns="http://www.w3.org/2000/svg"
 width="583.000000pt" height="250.000000pt" viewBox="0 0 583.000000 250.000000"
 preserveAspectRatio="xMidYMid meet">

<g transform="translate(0.000000,250.000000) scale(0.100000,-0.100000)"
fill="#000000" stroke="none">
<path d="M1835 2383 c-114 -41 -191 -106 -241 -205 l-26 -52 -18 22 c-10 12
-26 22 -35 22 -18 0 -56 -76 -48 -97 6 -15 39 -18 48 -3 9 15 25 12 25 -5 0
-21 -32 -85 -43 -85 -5 0 -11 9 -14 20 -9 34 -47 25 -66 -15 -9 -20 -17 -42
-17 -51 0 -21 27 -29 46 -14 27 23 34 -2 14 -48 -21 -46 -35 -53 -43 -22 -9
35 -44 24 -67 -21 -28 -54 -21 -73 25 -65 40 8 42 2 18 -49 -19 -39 -38 -45
-46 -15 -12 45 -61 10 -72 -51 -8 -43 3 -54 39 -38 36 17 39 9 18 -39 -17 -41
-52 -59 -52 -28 0 19 -14 28 -34 20 -22 -9 -52 -92 -38 -106 9 -9 18 -8 37 2
33 18 40 9 23 -36 -15 -42 -36 -55 -50 -31 -17 31 -48 20 -68 -25 -10 -22 -16
-47 -13 -55 6 -16 35 -17 51 -1 21 21 26 -1 11 -44 -17 -47 -38 -60 -46 -29
-9 35 -47 27 -66 -14 -9 -20 -17 -42 -17 -51 0 -21 27 -29 46 -14 40 34 30
-13 -34 -161 -76 -176 -93 -205 -127 -221 -20 -9 -29 -8 -45 7 -18 16 -20 31
-20 141 0 123 0 124 25 130 21 5 25 12 25 44 0 25 -5 40 -16 44 -9 3 -158 6
-333 6 -233 0 -320 -3 -329 -12 -7 -7 -12 -25 -12 -40 0 -21 6 -31 25 -38 l25
-10 0 -164 c0 -91 5 -200 10 -243 34 -255 255 -426 550 -427 246 -1 425 114
499 319 9 26 77 296 337 1340 30 121 60 235 67 253 28 79 139 142 249 142 89
0 246 -69 307 -134 14 -14 28 -26 33 -26 4 0 34 -25 65 -55 32 -31 85 -69 117
-85 87 -44 123 -39 72 9 -14 13 -28 40 -31 62 -5 30 -17 47 -48 73 -23 19 -54
37 -70 41 -15 4 -27 13 -27 20 0 6 -9 16 -19 21 -11 5 -39 27 -63 49 -63 59
-132 104 -196 128 -81 29 -248 34 -317 10z"/>
<path d="M3794 2345 c3 -9 6 -19 6 -21 0 -2 6 -4 14 -4 26 0 26 17 -1 29 -22
10 -25 10 -19 -4z"/>
<path d="M3893 2253 c-24 -2 -43 -9 -43 -14 0 -13 119 -7 123 6 2 11 -20 14
-80 8z"/>
<path d="M4013 2198 c-4 -7 -19 -36 -34 -63 -14 -28 -32 -61 -40 -73 -11 -18
-11 -24 -1 -34 11 -11 18 -7 38 17 13 17 24 34 24 38 0 5 11 33 25 63 14 30
25 57 25 59 0 10 -29 4 -37 -7z"/>
<path d="M4050 2165 c-5 -14 -10 -33 -10 -40 0 -8 -17 -48 -37 -89 l-37 -75
20 -48 c14 -34 25 -47 37 -45 9 2 17 -2 17 -8 0 -5 -4 -10 -10 -10 -15 0 -12
-22 6 -59 19 -38 21 -37 59 49 58 133 68 152 117 223 19 28 19 29 1 25 -10 -2
-22 -16 -27 -34 -5 -17 -18 -37 -29 -44 -18 -11 -19 -10 -12 7 4 10 11 32 15
48 4 17 11 37 14 46 5 10 -5 23 -33 41 -63 41 -79 44 -91 13z m88 -209 c-2 -1
-12 -8 -22 -16 -18 -14 -19 -14 -7 8 7 12 17 20 22 16 6 -3 9 -7 7 -8z"/>
<path d="M4235 2060 c3 -6 -3 -23 -15 -39 -19 -27 -19 -30 -3 -34 17 -4 17 -5
0 -6 -20 -1 -56 -38 -57 -58 0 -7 -4 -13 -8 -13 -5 0 -16 -26 -26 -57 -10 -32
-27 -75 -39 -96 -15 -27 -18 -40 -10 -48 11 -11 27 16 48 80 5 15 13 21 28 19
29 -4 33 -26 5 -30 -20 -3 -23 -8 -22 -45 1 -24 -2 -43 -7 -43 -5 0 -9 -4 -9
-10 0 -5 7 -7 16 -3 19 7 34 -13 34 -44 0 -13 5 -23 10 -23 6 0 10 -4 10 -10
0 -5 -7 -10 -15 -10 -17 0 -20 -16 -5 -25 6 -4 8 -15 5 -24 -3 -10 1 -24 9
-30 15 -12 27 -45 41 -105 5 -22 9 -26 15 -16 12 20 40 -5 40 -36 0 -12 4 -25
10 -29 5 -3 6 -13 3 -23 -3 -9 -3 -14 1 -11 4 4 9 28 11 54 3 37 0 50 -16 63
-10 9 -19 24 -19 33 0 19 -30 81 -43 90 -6 4 -7 15 -3 25 4 10 10 52 13 94 3
41 9 79 14 85 13 14 11 25 -6 25 -8 0 -15 5 -15 10 0 6 7 10 15 10 8 0 22 15
31 33 25 47 28 18 5 -36 -19 -44 -19 -51 2 -48 4 1 5 -9 2 -21 -2 -13 -6 -45
-9 -71 -3 -38 -2 -46 9 -37 14 12 25 -6 25 -43 0 -12 11 -35 25 -52 21 -25 26
-28 35 -15 5 8 10 23 10 34 0 15 3 16 15 6 12 -10 15 -9 15 6 0 27 42 84 63
84 18 0 19 -6 23 -115 1 -27 2 -55 3 -61 1 -14 46 -34 74 -33 20 1 20 2 -3 8
-20 6 -25 14 -25 37 1 16 5 40 9 54 8 23 7 24 -9 10 -9 -8 -20 -22 -24 -32 -4
-10 -7 26 -8 79 0 88 -2 98 -20 101 -12 2 -30 -12 -53 -43 -31 -41 -37 -45
-65 -39 -38 8 -55 22 -49 39 3 7 -4 18 -15 25 -25 13 -27 32 -6 64 14 22 14
25 0 40 -14 14 -14 16 -2 16 10 0 22 20 32 51 17 50 44 85 92 116 l25 17 -22
18 c-29 23 -52 23 -101 -3 -53 -27 -63 -15 -20 23 l34 31 -24 18 c-13 10 -30
17 -36 14 -7 -2 -13 0 -13 5 0 6 -9 10 -21 10 -11 0 -17 -5 -14 -10z m70 -40
c3 -5 1 -10 -4 -10 -6 0 -11 5 -11 10 0 6 2 10 4 10 3 0 8 -4 11 -10z m-95
-300 c0 -5 -2 -10 -4 -10 -3 0 -8 5 -11 10 -3 6 -1 10 4 10 6 0 11 -4 11 -10z
m0 -40 c0 -5 -4 -10 -10 -10 -5 0 -10 5 -10 10 0 6 5 10 10 10 6 0 10 -4 10
-10z"/>
<path d="M704 1986 c-28 -13 -55 -30 -59 -37 -5 -8 -4 -10 3 -5 7 4 12 2 12
-4 0 -6 -10 -8 -23 -5 -15 4 -28 1 -36 -9 -8 -9 -20 -16 -28 -16 -7 0 -16 -7
-19 -15 -4 -8 -12 -15 -20 -15 -8 0 -14 -4 -14 -10 0 -16 21 -12 37 8 14 16
14 16 9 -1 -4 -11 -2 -16 5 -12 5 4 15 -7 22 -24 7 -19 17 -29 24 -27 19 8 17
-68 -2 -84 -19 -16 -32 -5 -17 13 7 8 9 17 5 20 -3 4 -1 7 5 7 7 0 12 7 12 15
0 8 -4 15 -9 15 -5 0 -11 -7 -15 -15 -3 -8 -12 -15 -21 -15 -9 0 -18 7 -21 15
-9 22 -24 18 -24 -5 0 -12 5 -17 14 -14 9 3 17 -6 24 -25 9 -27 8 -32 -9 -41
-21 -12 -16 -35 7 -26 8 3 13 2 13 -2 -1 -4 -1 -14 0 -22 1 -13 2 -13 11 0 5
8 10 11 10 5 0 -5 14 16 31 49 16 32 28 61 25 64 -3 3 5 19 18 36 27 36 66
118 66 140 0 8 -4 18 -10 21 -18 11 -10 25 15 25 14 0 25 5 25 10 0 14 -9 13
-66 -14z"/>
<path d="M4462 1928 c-20 -20 -14 -28 13 -16 13 6 22 15 19 19 -7 12 -18 11
-32 -3z"/>
<path d="M4530 1900 c12 -8 9 -10 -12 -10 -18 0 -31 -8 -39 -22 -10 -19 -9
-20 7 -13 11 4 28 9 39 12 49 12 51 14 31 29 -11 8 -25 14 -30 14 -6 0 -4 -5
4 -10z"/>
<path d="M4399 1853 c-13 -16 -12 -17 4 -4 9 7 17 15 17 17 0 8 -8 3 -21 -13z"/>
<path d="M442 1833 c-31 -18 -40 -28 -31 -34 8 -4 20 -3 28 4 11 9 15 9 18 0
3 -7 11 -13 19 -13 17 0 18 -12 2 -28 -8 -8 -5 -14 16 -22 17 -6 24 -14 20
-22 -5 -8 -2 -9 10 -5 10 4 22 7 28 7 5 0 3 7 -6 15 -8 8 -19 15 -25 15 -7 0
-9 10 -5 24 4 19 -18 87 -29 86 -1 -1 -21 -13 -45 -27z"/>
<path d="M4616 1813 c-31 -34 -35 -54 -4 -27 18 16 17 13 -5 -21 -15 -22 -27
-56 -29 -75 -1 -19 -7 -38 -13 -42 -6 -5 -5 -11 4 -17 13 -8 13 -12 0 -27 -13
-16 -12 -16 8 -6 21 12 22 10 25 -36 l3 -48 34 9 34 8 -24 13 c-17 8 -24 20
-25 41 0 39 17 85 33 85 7 0 10 -7 7 -15 -10 -26 10 -16 31 14 11 17 26 32 35
35 8 3 21 9 29 12 10 5 12 2 8 -10 -4 -11 0 -17 16 -21 44 -10 90 -10 94 1 4
12 -64 60 -169 118 l-66 37 -26 -28z m104 -63 c0 -5 -4 -10 -10 -10 -5 0 -10
5 -10 10 0 6 5 10 10 10 6 0 10 -4 10 -10z m-70 -30 c0 -5 7 -10 15 -10 8 0
15 -7 15 -15 0 -8 -5 -15 -10 -15 -6 0 -13 7 -16 15 -4 8 -12 15 -20 15 -8 0
-14 5 -14 10 0 6 7 10 15 10 8 0 15 -4 15 -10z m-20 -49 c0 -16 -12 -41 -19
-41 -6 0 -7 32 -2 48 3 7 21 1 21 -7z"/>
<path d="M150 1740 c0 -5 4 -10 10 -10 5 0 7 -6 4 -14 -3 -9 7 -20 27 -30 32
-16 34 -16 58 8 l25 25 -25 9 c-44 17 -99 23 -99 12z"/>
<path d="M354 1723 c5 -17 3 -29 -6 -34 -19 -12 -30 -11 -22 3 4 7 3 8 -4 4
-7 -4 -12 -12 -12 -17 0 -5 -11 -22 -25 -37 l-25 -27 30 -3 c17 -2 28 -8 25
-13 -4 -5 -1 -9 4 -9 6 0 11 4 11 10 0 5 10 14 22 21 18 10 20 9 15 -5 -3 -8
-2 -18 3 -21 6 -4 10 -3 10 2 0 4 27 7 61 6 79 -3 114 10 100 36 -9 15 -18 18
-56 14 -41 -5 -45 -4 -45 15 0 19 -3 20 -26 12 -35 -14 -36 -13 -24 11 9 16 8
25 -6 40 -24 27 -37 24 -30 -8z m6 -77 c0 -2 -7 -7 -16 -10 -8 -3 -12 -2 -9 4
6 10 25 14 25 6z m91 -20 c-7 -8 -21 -12 -31 -9 -27 7 -15 23 17 23 21 0 23
-3 14 -14z"/>
<path d="M94 1691 c-10 -47 -4 -70 10 -36 3 8 12 15 21 15 20 0 19 20 -3 48
l-18 23 -10 -50z"/>
<path d="M193 1648 c15 -36 42 -44 42 -13 0 13 -6 20 -17 19 -10 -1 -18 4 -18
12 0 8 -5 14 -10 14 -6 0 -5 -13 3 -32z"/>
<path d="M4920 1640 c0 -5 5 -10 11 -10 5 0 7 5 4 10 -3 6 -8 10 -11 10 -2 0
-4 -4 -4 -10z"/>
<path d="M567 1584 c-4 -4 -32 -6 -62 -5 -31 1 -61 -2 -68 -6 -7 -5 -32 -8
-57 -9 -25 0 -58 -2 -75 -2 l-30 -2 40 -19 c107 -50 132 -61 143 -61 7 0 22
-6 33 -12 17 -10 23 -10 26 0 8 20 22 14 16 -8 -4 -16 1 -21 26 -26 17 -4 34
-11 37 -15 11 -18 24 -8 19 14 -3 12 -9 51 -13 86 -6 60 -18 81 -35 65z m-65
-76 c-6 -6 -15 -8 -19 -4 -4 4 -1 11 7 16 19 12 27 3 12 -12z m85 16 c-3 -3
-12 -4 -19 -1 -8 3 -5 6 6 6 11 1 17 -2 13 -5z m3 -74 c0 -5 -2 -10 -4 -10 -3
0 -8 5 -11 10 -3 6 -1 10 4 10 6 0 11 -4 11 -10z"/>
<path d="M5580 1580 c-13 -8 -13 -10 2 -10 9 0 20 5 23 10 8 13 -5 13 -25 0z"/>
<path d="M4680 1539 c0 -5 5 -7 10 -4 6 3 10 8 10 11 0 2 -4 4 -10 4 -5 0 -10
-5 -10 -11z"/>
<path d="M5480 1520 l-23 -17 37 -7 c25 -5 43 -2 58 8 16 12 18 16 7 20 -41
13 -58 12 -79 -4z"/>
<path d="M5653 1467 c-1 -68 7 -97 29 -97 5 0 2 7 -7 16 -12 13 -13 19 -4 30
7 9 10 32 6 60 -8 74 -22 69 -24 -9z"/>
<path d="M640 1496 c0 -15 3 -25 8 -23 4 3 7 -16 8 -41 3 -132 16 -157 86
-166 29 -4 69 -9 88 -12 l35 -5 -22 19 c-12 11 -19 23 -15 27 4 4 -9 4 -28 1
-31 -6 -33 -5 -17 7 19 16 23 37 5 37 -6 0 -9 3 -5 6 13 13 -63 86 -85 80 -9
-2 -19 2 -22 10 -3 8 1 14 9 14 23 0 18 13 -15 45 l-30 29 0 -28z"/>
<path d="M5375 1504 c-115 -39 -125 -45 -125 -69 0 -38 11 -55 35 -55 32 0 41
18 19 35 -18 14 -18 14 -1 15 11 0 31 9 46 19 22 16 35 18 65 11 21 -4 45 -15
55 -24 10 -9 21 -13 26 -9 4 5 5 0 2 -10 -4 -11 -3 -16 3 -12 6 3 10 1 10 -5
0 -6 -7 -13 -15 -16 -8 -4 -15 -16 -15 -28 1 -21 1 -21 16 -1 28 38 28 63 -2
99 -16 19 -37 35 -46 35 -9 1 -21 7 -25 15 -7 11 -14 11 -48 0z"/>
<path d="M4997 1495 c-4 -8 -2 -17 2 -20 5 -2 11 4 14 15 6 23 -8 27 -16 5z"/>
<path d="M4950 1438 l1 -33 14 25 c18 32 18 40 0 40 -10 0 -15 -10 -15 -32z"/>
<path d="M4430 1440 c0 -5 4 -10 9 -10 6 0 13 5 16 10 3 6 -1 10 -9 10 -9 0
-16 -4 -16 -10z"/>
<path d="M5364 1405 c-23 -19 -45 -46 -48 -60 -5 -18 -13 -25 -31 -25 -30 0
-75 20 -75 33 0 6 -2 8 -5 5 -3 -3 -3 -12 1 -21 7 -20 91 -34 107 -18 14 14
40 14 31 0 -4 -8 3 -9 23 -5 24 6 31 3 35 -11 3 -10 1 -29 -4 -42 -8 -23 -9
-24 -23 -5 -15 18 -17 17 -49 -20 l-34 -40 19 -24 c10 -14 19 -32 19 -41 1
-14 2 -14 14 2 18 23 26 22 26 -4 0 -40 28 -2 60 82 25 66 28 83 19 101 -11
21 -12 21 -25 3 -13 -18 -14 -18 -15 3 -1 12 -2 28 -3 34 -1 7 12 15 28 18 18
3 32 13 37 28 7 19 5 22 -16 22 -13 0 -27 5 -30 10 -9 15 -17 12 -61 -25z
m-34 -203 c0 -13 -12 -22 -22 -16 -10 6 -1 24 13 24 5 0 9 -4 9 -8z"/>
<path d="M5610 1410 c0 -11 -6 -23 -14 -26 -23 -9 -29 -54 -10 -75 9 -10 21
-16 26 -13 5 3 14 1 21 -4 19 -14 87 -23 87 -10 0 6 -23 33 -51 60 -30 29 -49
55 -45 63 3 8 1 17 -4 20 -6 4 -10 -3 -10 -15z"/>
<path d="M4405 1400 c-3 -5 -1 -10 4 -10 6 0 11 5 11 10 0 6 -2 10 -4 10 -3 0
-8 -4 -11 -10z"/>
<path d="M4925 1378 c4 -12 14 -30 22 -38 13 -13 14 -11 11 20 -2 24 -9 36
-21 38 -16 3 -18 0 -12 -20z"/>
<path d="M5060 1362 c0 -11 48 -37 55 -30 3 3 3 13 -1 22 -6 16 -54 23 -54 8z"/>
<path d="M4990 1341 c0 -9 44 -41 56 -41 4 0 -3 11 -16 25 -24 26 -40 32 -40
16z"/>
<path d="M4770 1325 c7 -8 10 -25 6 -39 -4 -15 -1 -26 7 -29 9 -4 9 -6 0 -6
-7 -1 -13 -4 -13 -8 0 -5 29 -9 65 -11 39 -1 65 2 65 8 0 5 -19 10 -42 11 -31
0 -37 3 -24 8 19 7 19 8 -3 14 -13 3 -27 18 -34 36 -6 17 -18 31 -25 31 -12 0
-12 -3 -2 -15z"/>
<path d="M4263 1295 c7 -13 14 -20 15 -14 5 14 -6 39 -17 39 -5 0 -4 -11 2
-25z"/>
<path d="M4850 1292 c19 -9 36 -20 38 -23 2 -4 13 -5 25 -2 18 4 19 3 7 -6
-13 -9 -12 -11 5 -12 11 -1 36 -1 55 0 60 3 147 -69 104 -86 -13 -5 -10 -10
17 -24 40 -21 64 -23 109 -7 31 10 32 12 15 25 -11 7 -16 13 -12 13 4 0 3 9
-3 21 -7 13 -17 18 -27 15 -12 -5 -14 -1 -9 19 7 28 0 31 -27 11 -13 -10 -16
-21 -11 -42 6 -27 4 -25 -35 19 -24 26 -50 47 -58 47 -9 0 -22 8 -29 18 -8 10
-13 12 -14 5 0 -7 -10 -13 -22 -13 -25 0 -93 22 -104 33 -4 4 -19 7 -33 6 -25
0 -24 -1 9 -17z"/>
<path d="M4366 1270 c7 -28 12 -35 18 -29 2 2 -2 15 -10 29 l-15 25 7 -25z"/>
<path d="M4402 1279 c2 -7 10 -15 17 -17 8 -3 12 1 9 9 -2 7 -10 15 -17 17 -8
3 -12 -1 -9 -9z"/>
<path d="M4297 1233 c3 -21 12 -45 19 -53 13 -13 14 -10 8 20 -4 19 -11 40
-15 46 -5 6 -6 14 -2 17 3 4 1 7 -5 7 -7 0 -9 -13 -5 -37z"/>
<path d="M4512 1258 c-18 -18 -14 -35 11 -42 32 -8 39 -7 31 5 -4 7 1 10 12 7
11 -1 27 -19 36 -38 10 -20 18 -28 18 -17 0 9 5 17 10 17 21 0 9 27 -17 37
l-28 11 32 1 c23 1 35 -5 43 -19 11 -20 50 -28 50 -11 0 5 3 16 6 24 4 12 -11
15 -78 19 -46 3 -90 8 -98 12 -9 3 -21 1 -28 -6z"/>
<path d="M5672 1251 c-11 -7 -11 -9 2 -14 10 -4 16 -1 16 8 0 17 -1 17 -18 6z"/>
<path d="M5728 1205 c30 -26 37 -25 28 2 -3 10 -16 19 -30 19 l-25 2 27 -23z"/>
<path d="M4924 1208 c-3 -4 6 -8 21 -8 14 0 28 -6 31 -14 3 -8 19 -19 35 -25
l29 -10 -22 30 c-12 16 -24 30 -27 30 -23 6 -63 4 -67 -3z"/>
<path d="M4520 1181 c5 -11 19 -26 30 -34 11 -8 17 -17 12 -21 -4 -4 5 -5 21
-1 17 5 27 3 27 -4 0 -6 4 -11 10 -11 5 0 0 16 -11 35 -20 34 -39 46 -39 25 0
-5 -7 -10 -15 -10 -8 0 -15 9 -15 20 0 11 -7 20 -15 20 -12 0 -14 -4 -5 -19z"/>
<path d="M4676 1175 c-4 -10 -12 -15 -22 -11 -9 4 -13 2 -8 -5 4 -7 7 -21 8
-33 1 -15 9 -22 29 -24 31 -4 32 -1 13 51 -10 30 -15 35 -20 22z"/>
<path d="M4468 1160 c12 -5 22 -14 22 -20 0 -5 9 -10 20 -10 11 0 20 4 20 8 0
17 -25 32 -54 31 -29 0 -29 -1 -8 -9z"/>
<path d="M4410 1140 c0 -5 5 -10 10 -10 6 0 10 5 10 10 0 6 -4 10 -10 10 -5 0
-10 -4 -10 -10z"/>
<path d="M4730 1135 c7 -8 16 -15 21 -15 5 0 9 7 9 15 0 9 -9 15 -21 15 -18 0
-19 -2 -9 -15z"/>
<path d="M4794 1122 c11 -19 156 -49 156 -33 0 12 -44 23 -48 12 -2 -5 -15 -3
-30 4 -37 18 -85 28 -78 17z"/>
<path d="M4336 1063 c-8 -19 0 -28 32 -38 14 -4 22 -2 22 6 0 18 13 2 17 -21
2 -13 -4 -20 -20 -23 -14 -3 -8 -5 15 -6 20 0 39 3 43 9 4 6 15 6 33 0 25 -10
26 -9 8 5 -11 8 -24 15 -29 15 -5 0 -27 16 -48 35 -43 39 -64 44 -73 18z"/>
<path d="M4420 1056 c0 -9 7 -16 16 -16 17 0 14 22 -4 28 -7 2 -12 -3 -12 -12z"/>
<path d="M4524 1045 c22 -17 36 -19 36 -6 0 10 -24 21 -43 21 -7 0 -3 -7 7
-15z"/>
<path d="M4615 1040 c3 -5 11 -10 16 -10 6 0 7 5 4 10 -3 6 -11 10 -16 10 -6
0 -7 -4 -4 -10z"/>
<path d="M4715 1030 c-8 -14 13 -22 31 -12 14 8 14 10 -5 15 -11 3 -23 1 -26
-3z"/>
<path d="M4870 1021 c0 -12 239 -76 248 -67 1 2 -16 13 -40 25 -27 13 -44 17
-49 10 -4 -6 -18 -3 -40 9 -35 20 -119 36 -119 23z"/>
<path d="M4510 1002 c0 -12 8 -18 25 -20 27 -2 32 7 13 26 -18 18 -38 15 -38
-6z"/>
<path d="M4700 1006 c0 -2 8 -10 18 -17 15 -13 16 -12 3 4 -13 16 -21 21 -21
13z"/>
<path d="M4753 978 c1 -14 11 -18 47 -18 64 0 150 -43 147 -73 -2 -23 4 -24
61 -11 17 3 22 10 18 21 -4 11 -2 14 9 9 8 -3 15 -1 15 4 0 6 -9 10 -19 10
-11 0 -23 5 -26 10 -4 6 -16 9 -28 8 -12 -2 -23 2 -24 7 -1 6 10 9 25 8 l27
-2 -25 14 c-29 17 -60 19 -60 5 0 -5 -4 -10 -10 -10 -5 0 -10 6 -10 14 0 11
-18 15 -74 18 -66 3 -74 1 -73 -14z"/>
<path d="M4669 960 c4 -24 15 -35 40 -46 28 -12 32 -12 28 0 -3 8 2 17 11 21
9 3 18 1 20 -4 2 -6 10 -11 18 -11 7 0 11 6 8 14 -3 7 -25 16 -50 19 -25 2
-53 12 -63 21 -18 16 -18 16 -12 -14z"/>
<path d="M5146 968 c-22 -32 -20 -39 8 -27 27 13 42 49 21 49 -8 0 -21 -10
-29 -22z"/>
<path d="M4317 943 c-10 -59 -8 -93 6 -93 7 0 5 -5 -5 -10 -10 -6 -14 -18 -11
-31 5 -16 11 -19 30 -14 14 3 30 2 36 -3 7 -5 27 -7 45 -5 30 5 31 6 15 20
-11 9 -7 8 12 -2 17 -10 39 -26 50 -36 22 -19 126 -59 154 -59 23 1 -17 30
-40 30 -10 0 -21 5 -25 11 -5 9 4 10 32 4 21 -4 42 -12 46 -18 4 -6 11 -8 15
-3 4 4 -1 14 -11 22 -13 9 -15 14 -6 14 7 0 21 -7 31 -16 12 -11 25 -14 36 -9
17 8 17 8 -2 13 -11 2 -24 8 -30 14 -6 6 -3 7 10 3 19 -6 19 -6 1 9 -10 8 -38
18 -62 22 -52 8 -87 32 -104 74 -7 16 -16 30 -20 30 -4 0 -17 9 -30 20 -13 12
-30 18 -37 16 -7 -3 -13 -1 -13 4 0 6 -9 10 -20 10 -14 0 -18 -5 -13 -17 5
-12 2 -15 -10 -10 -9 3 -17 2 -17 -2 0 -11 84 -20 88 -9 4 10 52 -21 52 -34 0
-6 -10 -4 -22 4 -23 15 -53 14 -43 -2 7 -12 -78 -20 -111 -10 -25 7 -26 8 -6
9 18 1 22 5 17 20 -3 11 1 26 11 35 19 20 18 22 -17 31 -24 6 -27 3 -32 -32z
m216 -137 c6 -15 -1 -26 -15 -26 -4 0 -8 9 -8 20 0 23 15 27 23 6z"/>
<path d="M4226 949 c-17 -20 -16 -49 3 -49 7 0 23 60 17 67 -1 1 -10 -7 -20
-18z"/>
<path d="M4543 949 c-27 -10 -29 -22 -8 -39 10 -9 15 -9 15 -1 0 21 30 11 45
-16 13 -23 15 -24 10 -5 -3 12 -7 32 -10 45 -4 17 -1 15 12 -8 27 -47 66 -95
75 -95 5 0 6 5 3 10 -4 6 5 5 19 -2 19 -8 32 -8 50 0 23 10 24 9 23 -16 -1
-18 4 -27 15 -30 21 -4 52 23 43 38 -3 5 1 10 9 10 8 0 18 -4 21 -10 8 -13 25
-13 25 0 0 16 -43 29 -57 18 -13 -10 -38 24 -26 36 3 3 1 6 -5 6 -6 0 -14 -5
-17 -10 -4 -7 -30 -9 -63 -6 -51 4 -61 9 -90 42 -35 40 -54 47 -89 33z m277
-129 c0 -5 -4 -10 -10 -10 -5 0 -10 5 -10 10 0 6 5 10 10 10 6 0 10 -4 10 -10z"/>
<path d="M5052 941 c2 -7 7 -12 11 -12 12 1 9 15 -3 20 -7 2 -11 -2 -8 -8z"/>
<path d="M4827 929 c7 -7 15 -10 18 -7 3 3 -2 9 -12 12 -14 6 -15 5 -6 -5z"/>
<path d="M4870 923 c8 -3 29 -12 45 -20 l30 -14 -24 21 c-13 11 -33 20 -45 19
-14 0 -16 -2 -6 -6z"/>
<path d="M4182 888 c-16 -16 -15 -21 8 -48 29 -34 47 -13 26 29 -19 35 -18 35
-34 19z"/>
<path d="M4143 835 c-16 -17 -17 -35 -3 -35 7 0 7 -6 0 -20 -6 -11 -15 -20
-21 -20 -6 0 -7 5 -4 10 3 6 0 10 -7 10 -8 0 -28 -20 -45 -44 l-31 -44 26 -7
c15 -3 45 -10 67 -14 l40 -8 -33 -8 c-35 -8 -38 -28 -6 -33 60 -11 8 -48 -54
-38 -19 3 -30 1 -27 -5 4 -5 -1 -9 -10 -9 -11 0 -15 5 -12 14 8 19 -16 38 -37
30 -19 -7 -21 -21 -3 -27 6 -2 9 -8 5 -12 -4 -4 -14 -3 -21 4 -12 9 -18 7 -30
-11 -8 -13 -26 -36 -41 -53 -14 -16 -26 -34 -26 -38 0 -4 -13 -22 -30 -40 -39
-41 -38 -54 5 -74 19 -9 35 -20 35 -25 0 -11 63 -43 79 -39 26 5 61 -9 61 -25
0 -14 -3 -14 -15 -4 -10 8 -31 11 -60 7 -38 -6 -46 -3 -60 15 -8 13 -15 18
-15 13 0 -6 -5 -2 -11 8 -14 23 -51 37 -78 30 -27 -7 -24 -34 6 -49 12 -6 47
-30 78 -55 l55 -44 -32 -8 c-23 -6 -42 -4 -65 7 -19 9 -40 16 -47 16 -7 0 -25
9 -39 20 -30 24 -47 26 -47 5 0 -8 -4 -15 -10 -15 -21 0 -8 -23 36 -67 57 -55
69 -51 14 6 -41 42 -50 61 -27 61 16 -1 97 -75 97 -89 0 -13 50 -15 82 -2 22
9 69 20 176 42 56 12 70 29 23 29 -17 0 -33 5 -36 10 -6 10 13 8 68 -7 27 -7
21 22 -8 37 -14 7 -25 17 -25 22 0 11 7 10 31 -2 11 -6 18 -7 18 -3 -1 4 3 21
10 38 7 16 10 40 8 53 -2 12 0 25 4 28 14 8 11 82 -3 87 -8 3 -6 6 4 6 13 1
17 8 16 26 -3 28 1 27 -89 16 -73 -10 -115 -5 -122 13 -3 8 26 12 95 14 111 3
138 12 137 45 -1 12 3 42 9 67 15 60 15 62 -7 55 -11 -3 -22 -1 -26 5 -3 5
-17 8 -31 6 -28 -5 -31 2 -6 20 23 18 42 17 64 -3 10 -9 18 -12 19 -7 0 5 3
22 5 38 4 22 -2 36 -22 57 -31 33 -34 34 -51 14z m-105 -392 c-10 -2 -18 -11
-18 -19 0 -8 -4 -14 -10 -14 -5 0 -10 5 -10 10 0 6 -12 10 -26 10 -46 0 -17
15 33 16 26 1 40 -1 31 -3z m69 -19 c-3 -3 -12 -4 -19 -1 -8 3 -5 6 6 6 11 1
17 -2 13 -5z m38 -34 c3 -5 2 -10 -4 -10 -5 0 -13 5 -16 10 -3 6 -2 10 4 10 5
0 13 -4 16 -10z m-55 -21 c0 -14 -26 -11 -39 5 -9 11 -6 12 14 8 14 -2 25 -8
25 -13z m-10 -69 c0 -5 -4 -10 -10 -10 -5 0 -10 5 -10 10 0 6 5 10 10 10 6 0
10 -4 10 -10z"/>
<path d="M4738 780 c12 -13 25 -18 37 -14 15 6 15 8 -6 20 -37 21 -53 17 -31
-6z"/>
<path d="M4286 745 c-18 -42 -29 -165 -15 -165 5 0 9 -6 9 -14 0 -11 8 -12 40
-4 45 12 47 16 24 64 -9 20 -14 44 -10 58 6 26 72 83 82 73 3 -3 1 -28 -5 -55
-12 -59 -5 -92 20 -92 15 0 18 5 14 23 -3 12 -2 34 4 47 l10 25 12 -32 c18
-44 44 -45 35 -2 -3 17 -6 36 -6 41 0 5 -4 6 -10 3 -5 -3 -10 -1 -10 4 0 20
-40 51 -65 51 -14 0 -34 -5 -44 -12 -15 -9 -24 -8 -45 5 -26 17 -26 17 -40
-18z"/>
<path d="M3629 158 c-7 -13 -18 -27 -25 -31 -17 -10 -18 -57 -2 -57 7 0 36 6
65 12 62 15 68 33 26 73 -34 31 -49 32 -64 3z m31 -18 c0 -5 -4 -10 -10 -10
-5 0 -10 5 -10 10 0 6 5 10 10 10 6 0 10 -4 10 -10z"/>
</g>
</svg>
