<?xml version="1.0" standalone="no"?>
<!DOCTYPE svg PUBLIC "-//W3C//DTD SVG 20010904//EN"
 "http://www.w3.org/TR/2001/REC-SVG-20010904/DTD/svg10.dtd">
<svg version="1.0" xmlns="http://www.w3.org/2000/svg"
 width="214.000000pt" height="233.000000pt" viewBox="0 0 214.000000 233.000000"
 preserveAspectRatio="xMidYMid meet">

<g transform="translate(0.000000,233.000000) scale(0.100000,-0.100000)"
fill="#000000" stroke="none">
<path d="M955 2284 c-185 -41 -335 -169 -381 -325 -9 -30 -19 -112 -23 -184
-9 -171 -20 -191 -186 -355 -143 -142 -181 -189 -229 -286 -112 -229 -82 -505
77 -712 281 -364 831 -490 1315 -302 254 99 459 310 529 545 27 93 24 268 -6
365 -45 145 -85 204 -263 386 -162 167 -168 179 -179 374 -4 80 -12 159 -17
175 -30 96 -122 206 -216 258 -119 66 -289 91 -421 61z m266 -80 c129 -38 247
-142 281 -248 6 -17 13 -97 17 -177 11 -205 23 -230 213 -426 149 -154 192
-217 234 -343 26 -77 26 -263 0 -340 -92 -272 -321 -458 -666 -542 -35 -8
-118 -13 -230 -13 -151 0 -187 4 -265 24 -257 67 -466 217 -573 411 -97 176
-98 406 -1 578 44 80 87 130 225 267 161 159 174 183 184 365 5 74 12 149 16
165 29 122 141 231 282 276 73 23 209 25 283 3z"/>
<path d="M909 1241 c-127 -41 -237 -131 -290 -237 -20 -42 -24 -64 -24 -154 0
-97 2 -110 29 -163 36 -70 132 -163 202 -196 85 -41 135 -51 244 -51 84 0 118
5 170 23 124 44 217 122 267 225 40 81 45 206 12 294 -43 115 -167 221 -308
262 -75 22 -229 20 -302 -3z m264 -185 c90 -27 138 -82 152 -176 13 -91 -26
-180 -100 -222 -35 -20 -56 -23 -177 -26 l-138 -4 0 101 0 101 -30 0 c-23 0
-30 4 -30 20 0 16 7 20 30 20 l30 0 0 100 0 100 108 0 c64 0 128 -6 155 -14z"/>
<path d="M1010 930 l0 -60 55 0 c48 0 55 -2 55 -20 0 -18 -7 -20 -55 -20 l-55
0 0 -60 0 -60 61 0 c109 0 159 42 159 135 0 93 -59 145 -165 145 l-55 0 0 -60z"/>
</g>
</svg>
