<?xml version="1.0" standalone="no"?>
<!DOCTYPE svg PUBLIC "-//W3C//DTD SVG 20010904//EN"
 "http://www.w3.org/TR/2001/REC-SVG-20010904/DTD/svg10.dtd">
<svg version="1.0" xmlns="http://www.w3.org/2000/svg"
 width="220.000000pt" height="261.000000pt" viewBox="0 0 220.000000 261.000000"
 preserveAspectRatio="xMidYMid meet">

<g transform="translate(0.000000,261.000000) scale(0.100000,-0.100000)"
fill="#000000" stroke="none">
<path d="M358 2488 c5 -19 23 -20 29 -1 2 6 -5 13 -15 15 -15 4 -18 1 -14 -14z"/>
<path d="M445 2393 l-50 -13 49 5 c46 5 65 11 55 18 -2 2 -26 -3 -54 -10z"/>
<path d="M520 2257 c-43 -92 -44 -97 -32 -97 9 0 35 49 62 119 33 86 14 72
-30 -22z"/>
<path d="M581 2304 c-6 -21 -8 -40 -6 -43 3 -2 0 -10 -7 -18 -6 -7 -8 -16 -5
-20 4 -3 3 -11 -1 -17 -5 -6 -19 -36 -30 -66 -20 -50 -21 -59 -9 -100 7 -26
19 -45 27 -46 32 -2 34 -5 17 -19 -17 -12 -17 -17 -6 -49 7 -20 16 -36 19 -36
8 0 50 113 50 135 0 10 7 27 17 37 9 10 11 18 6 18 -6 0 -14 -7 -17 -16 -3 -8
-11 -12 -17 -8 -7 4 -7 9 -2 13 5 3 13 15 17 26 5 13 10 15 13 8 5 -14 25 -18
20 -5 -3 9 45 106 56 110 11 5 9 22 -3 22 -6 0 -13 -8 -17 -17 -24 -70 -34
-86 -45 -75 -8 8 -8 15 3 28 8 9 15 29 15 43 1 14 5 35 8 46 5 15 0 24 -21 37
-15 10 -38 25 -50 33 -21 16 -22 15 -32 -21z"/>
<path d="M743 2179 c-10 -26 -10 -29 3 -19 9 8 14 9 14 2 0 -6 -6 -15 -12 -19
-7 -4 -13 -15 -13 -23 0 -8 -5 -14 -12 -13 -7 2 -21 -11 -33 -27 -12 -17 -19
-30 -15 -30 3 0 -1 -10 -9 -22 -7 -13 -22 -54 -31 -91 -10 -37 -22 -70 -27
-73 -4 -3 -8 -17 -8 -32 1 -37 12 -16 40 73 26 81 40 102 40 59 0 -16 6 -36
12 -42 10 -10 8 -14 -10 -18 -34 -9 -33 -66 3 -140 24 -51 24 -64 -2 -64 -13
0 -13 -2 -2 -16 14 -17 33 -78 46 -142 3 -19 13 -36 22 -40 22 -8 31 -22 31
-52 0 -20 2 -22 10 -10 10 16 3 59 -11 74 -5 6 -9 20 -9 32 0 13 -4 26 -10 29
-5 3 -10 17 -10 30 0 12 -7 26 -16 29 -10 4 -14 12 -9 23 3 10 8 45 11 78 3
33 7 77 9 98 3 21 1 37 -5 37 -15 0 -12 28 3 37 8 4 26 34 41 65 28 57 64 102
50 62 -4 -10 -11 -24 -17 -31 -5 -7 -13 -28 -17 -48 -6 -27 -5 -35 6 -35 12 0
19 26 15 53 0 4 4 7 9 7 6 0 10 4 10 9 0 6 11 22 25 37 14 15 25 33 25 40 0 7
5 16 12 20 7 5 8 3 3 -6 -5 -9 -4 -11 4 -6 9 6 9 12 -1 28 -7 10 -16 19 -20
19 -5 -1 -15 -1 -24 -1 -9 0 -12 -5 -8 -12 4 -7 3 -8 -4 -4 -6 4 -23 -1 -37
-10 -14 -9 -28 -14 -31 -11 -8 8 35 67 48 67 6 0 6 6 -2 15 -15 18 -31 10 -23
-10 3 -8 1 -15 -4 -15 -17 0 -23 13 -12 26 14 17 3 35 -18 27 -11 -4 -14 -3
-9 5 4 7 3 12 -1 12 -5 0 -14 -14 -20 -31z m-17 -338 c-9 -8 -18 -12 -22 -9
-9 10 3 25 21 25 14 0 14 -2 1 -16z m-6 -46 c0 -8 -4 -15 -10 -15 -5 0 -10 7
-10 15 0 8 5 15 10 15 6 0 10 -7 10 -15z"/>
<path d="M961 1998 c-10 -17 -10 -18 6 -10 10 5 25 11 33 14 10 3 9 6 -6 10
-14 3 -25 -1 -33 -14z"/>
<path d="M1086 1925 c4 -16 -2 -34 -16 -53 -13 -17 -20 -37 -17 -46 3 -8 2
-18 -4 -22 -6 -3 -8 -13 -4 -22 3 -8 2 -18 -4 -21 -5 -3 -3 -12 5 -19 12 -11
14 -6 14 28 0 44 2 45 31 29 19 -10 19 -9 9 10 -6 12 -15 21 -20 21 -6 0 -10
5 -10 10 0 6 5 10 11 10 6 0 24 14 41 30 17 17 33 28 37 25 3 -4 -4 -14 -15
-23 -28 -23 -36 -49 -18 -56 12 -5 13 -10 4 -26 -6 -12 -10 -26 -7 -33 2 -6
10 3 18 21 7 18 20 32 26 32 7 0 13 5 13 10 0 6 9 10 20 10 11 0 20 5 20 12 0
6 3 8 6 5 4 -4 1 -13 -6 -21 -10 -12 -9 -18 2 -29 7 -7 19 -12 25 -10 7 3 21
0 31 -6 15 -8 21 -7 25 3 9 24 -152 149 -195 152 -25 2 -27 -1 -22 -21z m84
-60 c0 -9 -6 -12 -15 -9 -8 4 -12 10 -9 15 8 14 24 10 24 -6z"/>
<path d="M780 1890 c0 -5 7 -7 15 -4 8 4 15 8 15 10 0 2 -7 4 -15 4 -8 0 -15
-4 -15 -10z"/>
<path d="M788 1835 c-3 -14 -1 -25 3 -25 5 0 9 4 9 9 0 5 3 16 6 25 3 9 2 16
-4 16 -5 0 -12 -11 -14 -25z"/>
<path d="M782 1755 c1 -20 4 -32 7 -27 3 5 11 11 18 13 8 3 5 12 -7 27 l-19
24 1 -37z"/>
<path d="M934 1753 c-34 -47 -38 -59 -12 -35 29 27 38 28 38 5 0 -15 2 -16 10
-3 14 22 12 60 -3 60 -7 0 -22 -12 -33 -27z"/>
<path d="M807 1697 c7 -58 12 -73 33 -97 l20 -23 0 44 c1 41 2 43 15 25 12
-16 15 -17 15 -4 0 9 3 25 6 35 4 14 4 15 -4 4 -8 -11 -11 -10 -19 4 -9 16
-12 15 -27 -6 -16 -23 -20 -20 -17 12 1 9 -4 21 -12 27 -11 9 -13 6 -10 -21z"/>
<path d="M1920 1690 c-13 -8 -13 -10 2 -10 9 0 20 5 23 10 8 13 -5 13 -25 0z"/>
<path d="M1066 1654 c-8 -22 4 -34 25 -25 14 5 14 8 -1 24 -16 17 -18 17 -24
1z"/>
<path d="M971 1618 c1 -37 2 -39 9 -18 12 36 12 60 0 60 -5 0 -10 -19 -9 -42z"/>
<path d="M1986 1615 c7 -32 7 -31 -2 -87 -4 -22 -2 -38 3 -38 11 0 12 6 17 66
2 23 -2 50 -11 65 l-14 24 7 -30z"/>
<path d="M1004 1606 c-7 -7 -10 -25 -7 -39 3 -17 1 -27 -6 -27 -7 0 -9 -5 -6
-10 11 -18 26 1 24 28 -2 15 0 33 5 40 11 18 4 23 -10 8z"/>
<path d="M1688 1587 c-54 -23 -59 -32 -23 -41 23 -6 65 11 65 26 0 3 7 14 16
22 21 22 1 19 -58 -7z"/>
<path d="M1756 1581 c-3 -4 6 -6 19 -3 14 2 25 6 25 8 0 8 -39 4 -44 -5z"/>
<path d="M1805 1558 c11 -6 30 -22 43 -35 12 -13 22 -19 22 -13 0 18 -48 60
-67 60 -16 -1 -16 -2 2 -12z"/>
<path d="M1635 1521 c-6 -10 24 -45 32 -37 7 7 -7 46 -17 46 -5 0 -11 -4 -15
-9z"/>
<path d="M1028 1513 c7 -3 16 -2 19 1 4 3 -2 6 -13 5 -11 0 -14 -3 -6 -6z"/>
<path d="M1764 1513 c-27 -5 -49 -30 -58 -65 -5 -22 -3 -25 13 -21 10 2 25 -3
35 -12 18 -18 21 -13 7 14 -11 20 -3 38 19 43 16 3 39 27 40 41 0 7 -19 7 -56
0z"/>
<path d="M2005 1470 c3 -5 8 -10 11 -10 2 0 4 5 4 10 0 6 -5 10 -11 10 -5 0
-7 -4 -4 -10z"/>
<path d="M1482 1461 c-10 -6 -10 -10 2 -20 22 -19 40 -10 24 11 -8 11 -18 15
-26 9z"/>
<path d="M1933 1456 c3 -8 1 -17 -6 -20 -8 -3 -6 -9 6 -19 14 -11 15 -16 5
-21 -7 -3 -3 -3 8 -1 14 4 24 0 28 -10 3 -8 11 -15 17 -15 8 0 6 7 -4 18 -9
10 -22 33 -28 50 -6 18 -15 32 -21 32 -6 0 -8 -6 -5 -14z"/>
<path d="M768 1383 c5 -21 7 -23 10 -9 2 10 0 22 -6 28 -6 6 -7 0 -4 -19z"/>
<path d="M1218 1383 c-2 -18 -1 -30 4 -27 4 3 8 -2 8 -10 0 -8 4 -17 9 -21 18
-10 18 10 1 50 l-17 40 -5 -32z"/>
<path d="M1658 1403 c7 -3 16 -2 19 1 4 3 -2 6 -13 5 -11 0 -14 -3 -6 -6z"/>
<path d="M1275 1390 c3 -5 11 -10 16 -10 6 0 7 5 4 10 -3 6 -11 10 -16 10 -6
0 -7 -4 -4 -10z"/>
<path d="M1776 1365 c-4 -19 -11 -35 -17 -35 -6 0 -7 -5 -3 -12 4 -7 3 -8 -4
-4 -7 4 -12 16 -12 27 0 26 -14 24 -34 -6 -9 -14 -12 -25 -7 -25 5 0 7 -18 4
-40 -6 -40 3 -50 25 -28 9 9 12 6 12 -17 0 -61 44 40 55 128 7 55 -9 65 -19
12z"/>
<path d="M895 1360 c3 -5 8 -10 11 -10 2 0 4 5 4 10 0 6 -5 10 -11 10 -5 0 -7
-4 -4 -10z"/>
<path d="M987 1345 c-3 -7 5 -10 24 -7 35 5 36 8 5 14 -14 3 -27 0 -29 -7z"/>
<path d="M1375 1350 c19 -8 93 -14 84 -6 -2 2 -26 6 -54 9 -32 4 -43 3 -30 -3z"/>
<path d="M1078 1333 c7 -3 16 -2 19 1 4 3 -2 6 -13 5 -11 0 -14 -3 -6 -6z"/>
<path d="M1110 1328 c0 -7 5 -20 10 -28 8 -12 10 -12 10 5 0 15 2 17 9 6 6 -9
11 -10 15 -2 4 6 4 16 1 21 -9 14 -45 12 -45 -2z"/>
<path d="M802 1305 c0 -16 2 -22 5 -12 2 9 2 23 0 30 -3 6 -5 -1 -5 -18z"/>
<path d="M1406 1266 c3 -8 13 -17 22 -21 13 -5 13 -2 -3 15 -21 24 -26 25 -19
6z"/>
<path d="M940 1253 c8 -3 24 -10 35 -16 18 -9 19 -9 6 6 -7 10 -23 17 -35 16
-14 0 -16 -2 -6 -6z"/>
<path d="M1131 1238 c-1 -15 4 -30 9 -33 12 -7 12 12 0 40 -8 18 -9 17 -9 -7z"/>
<path d="M1045 1240 c3 -5 8 -10 11 -10 2 0 4 5 4 10 0 6 -5 10 -11 10 -5 0
-7 -4 -4 -10z"/>
<path d="M1507 1236 c-13 -32 79 -46 98 -15 7 11 -3 11 -30 -1 -14 -5 -26 -2
-41 12 -19 16 -22 17 -27 4z"/>
<path d="M1263 1190 c16 -5 34 -12 41 -17 6 -4 3 0 -7 10 -11 9 -29 17 -41 16
-17 -1 -16 -2 7 -9z"/>
<path d="M830 1141 c0 -11 10 -26 23 -32 19 -11 21 -10 9 3 -7 9 -11 21 -10
28 2 7 -3 15 -9 17 -8 3 -13 -4 -13 -16z"/>
<path d="M990 1136 c0 -2 7 -9 15 -16 13 -11 14 -10 9 4 -5 14 -24 23 -24 12z"/>
<path d="M1000 1075 c7 -9 15 -13 17 -11 7 7 -7 26 -19 26 -6 0 -6 -6 2 -15z"/>
<path d="M1372 1079 c2 -6 14 -16 27 -20 27 -11 19 6 -11 22 -16 8 -19 8 -16
-2z"/>
<path d="M1440 1055 c0 -8 9 -15 20 -15 11 0 20 2 20 5 0 2 -9 9 -20 15 -16 9
-20 8 -20 -5z"/>
<path d="M1285 1050 c-16 -7 -17 -9 -3 -9 9 -1 34 -17 55 -36 21 -19 41 -35
46 -35 4 0 7 -7 7 -15 0 -20 26 -19 34 1 3 8 2 12 -4 9 -6 -3 -10 -2 -10 4 0
6 -14 18 -32 27 -29 15 -30 18 -15 29 15 11 15 14 3 18 -8 3 -16 1 -18 -5 -3
-7 -12 -9 -22 -5 -9 4 -14 11 -11 17 7 12 -2 12 -30 0z"/>
<path d="M823 1033 c9 -2 23 -2 30 0 6 3 -1 5 -18 5 -16 0 -22 -2 -12 -5z"/>
<path d="M1030 1020 c0 -5 5 -10 11 -10 5 0 7 5 4 10 -3 6 -8 10 -11 10 -2 0
-4 -4 -4 -10z"/>
<path d="M810 1016 c0 -2 7 -17 15 -32 l15 -29 0 33 c0 22 -5 32 -15 32 -8 0
-15 -2 -15 -4z"/>
<path d="M1010 1009 c0 -5 -4 -7 -10 -4 -16 10 -12 -11 5 -25 13 -11 14 -10 9
5 -5 13 -4 16 4 11 8 -5 10 -2 6 8 -7 18 -14 21 -14 5z"/>
<path d="M1125 1010 c3 -5 16 -15 28 -21 22 -12 22 -12 3 10 -19 21 -43 30
-31 11z"/>
<path d="M1460 1010 c0 -5 5 -10 11 -10 5 0 7 5 4 10 -3 6 -8 10 -11 10 -2 0
-4 -4 -4 -10z"/>
<path d="M720 996 c0 -8 5 -18 10 -21 6 -3 10 1 10 9 0 8 -4 18 -10 21 -5 3
-10 -1 -10 -9z"/>
<path d="M908 993 c7 -3 16 -2 19 1 4 3 -2 6 -13 5 -11 0 -14 -3 -6 -6z"/>
<path d="M1040 991 c0 -6 4 -13 10 -16 6 -3 7 1 4 9 -7 18 -14 21 -14 7z"/>
<path d="M811 983 c-1 -6 -4 -20 -7 -30 -5 -17 -5 -17 6 0 6 10 9 23 6 30 -3
9 -5 9 -5 0z"/>
<path d="M986 965 c24 -39 24 -40 24 -28 0 6 -9 21 -21 34 l-20 24 17 -30z"/>
<path d="M960 951 c0 -6 -15 -11 -34 -11 -19 0 -38 -4 -41 -10 -4 -6 -15 -4
-30 6 -16 11 -25 12 -30 4 -12 -19 5 -25 65 -22 55 2 58 1 64 -24 7 -25 8 -26
21 -8 19 25 19 49 0 64 -10 9 -15 9 -15 1z"/>
<path d="M695 940 c3 -5 11 -10 16 -10 6 0 7 5 4 10 -3 6 -11 10 -16 10 -6 0
-7 -4 -4 -10z"/>
<path d="M1100 945 c0 -6 57 -35 70 -35 5 0 10 5 10 12 0 6 -3 9 -6 5 -4 -3
-22 0 -40 8 -19 8 -34 12 -34 10z"/>
<path d="M660 911 c0 -6 5 -13 10 -16 6 -3 10 1 10 9 0 9 -4 16 -10 16 -5 0
-10 -4 -10 -9z"/>
<path d="M721 904 c0 -11 3 -14 6 -6 3 7 2 16 -1 19 -3 4 -6 -2 -5 -13z"/>
<path d="M1230 909 c0 -5 5 -7 10 -4 6 3 10 8 10 11 0 2 -4 4 -10 4 -5 0 -10
-5 -10 -11z"/>
<path d="M1029 886 c20 -24 46 -36 87 -42 22 -2 33 0 29 6 -3 5 -16 10 -28 10
-12 0 -40 10 -62 21 -31 17 -37 18 -26 5z"/>
<path d="M650 879 c0 -5 5 -9 11 -9 6 0 9 -7 5 -15 -3 -8 -1 -15 4 -15 5 0 17
-14 27 -31 l18 -30 7 33 c5 25 3 36 -10 46 -9 7 -16 16 -15 20 1 4 -10 8 -23
8 -13 1 -24 -2 -24 -7z"/>
<path d="M951 850 c24 -21 64 -47 89 -56 25 -10 51 -22 59 -28 11 -9 13 -8 9
4 -2 8 -19 19 -36 25 -18 5 -32 15 -32 22 0 13 -3 14 -37 17 -10 0 -31 13 -47
29 -17 15 -35 27 -40 27 -4 0 11 -18 35 -40z"/>
<path d="M1000 881 c0 -6 4 -13 10 -16 6 -3 7 1 4 9 -7 18 -14 21 -14 7z"/>
<path d="M890 864 c0 -8 5 -12 10 -9 6 4 8 11 5 16 -9 14 -15 11 -15 -7z"/>
<path d="M1210 870 c0 -5 7 -10 16 -10 8 0 12 5 9 10 -3 6 -10 10 -16 10 -5 0
-9 -4 -9 -10z"/>
<path d="M818 863 c6 -2 18 -2 25 0 6 3 1 5 -13 5 -14 0 -19 -2 -12 -5z"/>
<path d="M1184 845 c8 -8 20 -15 27 -15 7 0 4 6 -7 15 -25 19 -40 19 -20 0z"/>
<path d="M591 795 c-28 -39 -30 -45 -12 -36 11 7 22 9 22 6 1 -3 2 -10 3 -16
0 -7 11 -16 24 -20 13 -5 21 -5 17 0 -9 15 33 0 47 -17 11 -13 10 -15 -12 -9
-29 7 -56 -6 -46 -22 4 -6 12 -11 17 -11 6 0 7 5 4 10 -3 6 -2 10 4 10 5 0 11
-5 13 -11 6 -19 38 3 38 26 0 13 3 30 6 39 4 11 -1 15 -18 15 -12 0 -32 1 -43
1 -11 0 -26 9 -33 20 -11 18 -10 20 10 20 13 0 18 3 12 8 -6 4 -13 13 -15 20
-3 8 -18 -5 -38 -33z"/>
<path d="M865 816 c-14 -10 -23 -11 -37 -3 -22 14 -46 -6 -53 -44 -8 -41 -9
-95 0 -109 4 -7 2 -16 -6 -21 -11 -7 -10 -9 4 -9 9 0 17 -4 17 -8 0 -5 6 -9
13 -9 8 0 14 6 14 13 0 7 -5 10 -10 7 -6 -3 -7 -1 -3 6 4 6 0 14 -8 17 -9 3
-16 10 -16 15 0 17 42 -12 47 -32 3 -10 9 -19 14 -19 20 0 -17 89 -46 113 -6
5 -3 7 8 3 9 -3 17 -1 17 4 0 14 61 80 74 80 15 -1 40 -37 57 -82 7 -21 17
-38 22 -38 10 0 0 52 -12 60 -5 3 -12 16 -16 30 -13 41 -45 52 -80 26z m-42
-36 c-3 -11 -11 -20 -17 -20 -6 0 -12 9 -12 20 0 12 7 20 17 20 12 0 16 -6 12
-20z"/>
<path d="M907 773 c-10 -9 -8 -86 2 -102 6 -10 9 7 10 47 0 63 -1 67 -12 55z"/>
<path d="M684 656 c-6 -15 -29 -23 -94 -31 -35 -5 -41 -3 -38 12 2 14 -5 19
-27 21 l-30 2 23 -16 c26 -19 29 -36 6 -32 -10 2 -19 -2 -21 -8 -6 -19 41 -25
114 -14 37 5 71 10 75 10 6 0 7 70 1 70 -2 0 -6 -6 -9 -14z"/>
<path d="M467 593 c-6 -16 -20 -37 -29 -47 -10 -11 -18 -27 -18 -36 0 -9 -11
-26 -25 -38 -31 -27 -32 -48 -4 -63 12 -6 38 -27 57 -46 24 -24 40 -33 55 -29
28 7 57 -11 57 -36 0 -20 -1 -20 -18 -5 -10 10 -29 17 -43 16 -23 -1 -23 -1 5
-13 l29 -13 -46 -7 c-52 -8 -58 -17 -26 -40 12 -8 19 -18 16 -23 -8 -13 -86
-8 -100 6 -6 6 -17 11 -25 11 -7 0 -29 12 -48 26 -47 36 -43 17 7 -31 22 -22
45 -51 50 -64 6 -15 14 -21 25 -17 9 3 25 6 36 6 17 0 18 3 8 15 -14 17 0 21
17 4 10 -10 63 -3 63 10 0 3 12 7 27 8 15 0 45 7 67 14 l41 14 -40 8 c-22 4
-51 8 -65 8 -14 0 -19 3 -12 6 6 2 10 9 6 14 -3 5 -1 9 5 9 5 0 13 -5 16 -10
4 -6 10 -8 14 -6 4 3 24 1 44 -4 44 -10 52 10 11 29 -17 7 -24 17 -20 26 3 9
0 15 -9 15 -20 0 -19 36 1 44 23 9 24 8 17 -10 -5 -14 11 -33 28 -34 8 0 29
48 29 66 0 8 -4 12 -10 9 -5 -3 -10 2 -10 12 0 11 -5 24 -12 31 -19 19 0 27
21 7 20 -17 20 -16 18 24 -1 31 -5 40 -15 36 -7 -3 -29 -5 -48 -5 -21 0 -42
-8 -55 -21 -13 -13 -24 -17 -32 -11 -7 5 -24 12 -38 15 -26 7 -61 59 -36 54 6
-1 11 4 10 11 -2 6 1 12 6 12 6 0 9 -12 8 -27 -2 -21 4 -28 26 -34 18 -5 32
-3 40 6 7 7 24 15 37 19 19 6 21 5 10 -3 -23 -16 27 -13 70 5 l35 14 -40 -5
-40 -6 30 16 c43 23 56 39 25 31 -63 -17 -133 -24 -153 -17 -25 10 -55 41 -40
41 5 0 10 7 10 15 0 22 -6 18 -20 -12z m173 -123 c0 -5 -12 -10 -27 -10 -22 0
-25 2 -13 10 20 13 40 13 40 0z m-6 -50 c7 -7 6 -10 -2 -10 -6 0 -9 -7 -6 -15
8 -19 -7 -19 -32 0 -10 8 -30 15 -44 16 -24 2 -24 2 -2 6 12 2 20 8 17 13 -7
12 56 3 69 -10z"/>
<path d="M320 365 c0 -8 12 -22 28 -32 15 -9 39 -28 55 -42 15 -13 27 -23 28
-20 0 2 2 11 4 20 2 12 -3 15 -16 12 -12 -4 -19 0 -19 10 0 13 -60 67 -74 67
-3 0 -6 -7 -6 -15z"/>
<path d="M250 234 c0 -12 11 -26 35 -44 15 -11 14 -7 -5 15 -14 17 -26 32 -27
34 -2 2 -3 0 -3 -5z"/>
<path d="M210 190 c-6 -11 -8 -25 -5 -30 3 -6 -1 -10 -9 -10 -20 0 -21 -34 -2
-49 19 -16 24 -4 20 42 -3 38 17 54 30 22 3 -9 0 -15 -9 -15 -8 0 -15 -7 -15
-16 0 -8 5 -12 10 -9 6 3 10 1 10 -4 0 -6 12 -11 26 -11 23 0 25 3 19 27 -6
25 -30 52 -48 53 -5 0 -5 5 -2 10 3 6 2 10 -4 10 -6 0 -15 -9 -21 -20z"/>
<path d="M316 147 c3 -10 9 -15 12 -12 3 3 0 11 -7 18 -10 9 -11 8 -5 -6z"/>
</g>
</svg>
